<svg xmlns="http://www.w3.org/2000/svg" viewBox="0 0 424.46 130.94" width="100%" height="100%" fill="#000">
    <title>
        Sofia
    </title>
    <desc>
        Logo do Sofia
    </desc>
    <g data-name="Camada 2">
        <g data-name="Camada 1">
            <path d="M200.75 36.27c-24.76 0-44.83 21.19-44.83 47.34s20.07 47.33 44.83 47.33 44.83-21.19 44.83-47.33S225.51 36.27 200.75 36.27Zm0 74.17c-11.14 0-20.17-12-20.17-26.83s9-26.84 20.17-26.84 20.17 12 20.17 26.84S211.89 110.44 200.75 110.44ZM43.75 57.86s-11-30 11-46.34c0 0 6.92-7.5 25.67-8.66h53.66v8.66h10V22.46h13.67v11.4h-87S49.48 34.36 43.75 57.86ZM162.42 22.19H174.58999999999997V34.36H162.42zM160.58 12.19H167.08V18.689999999999998H160.58zM169.25 13.02H174.92V18.689999999999998H169.25zM178.03 19.07H182.41V23.45H178.03zM178.42 26.36H185.25V33.19H178.42zM148.42 12.19H156.75V18.689999999999998H148.42zM155.42 4.02H160.58999999999997V9.19H155.42zM146.42 2.86H152.75V9.19H146.42zM136.92 2.86H143.92V9.19H136.92zM312.92 40.19h-27.5a9.83 9.83 0 0 1 1-7c9.56-21 42.83-6.83 42.83-6.83l3.5-20.84c-38-13.66-57.17 2.34-57.17 2.34-16.5 11.83-14.66 32.33-14.66 32.33H245.58v19.5h15.34v71.25h25.5V59.69h26.5v71.25h25.5V40.19ZM71.25 37S48.08 40.36 46.92 59.86c0 0 0 17.66 20.16 20.33 0 0 16.74 1.26 37.3 1.33a13.57 13.57 0 0 1 5.15 1c3.48 1.44 7.92 4.79 4.89 12.17a24.61 24.61 0 0 0 22.5-17.5s3.5-20.42-21-25.67c0 0-12.17-2-37.5-1.33C78.42 50.19 67.11 50.52 71.25 37ZM141.5 73.86s11 31-11 47.33c0 0-6.92 7.5-25.67 8.67H51.17v-8.67h-10V110.26H27.5V98.86h84.23S140.42 97.52 141.5 73.86ZM10.67 98.36H22.84V110.53H10.67zM18.17 114.02H24.67V120.52H18.17zM10.33 114.02H16V119.69H10.33zM2.83 109.26H7.21V113.64H2.83zM0 99.52H6.83V106.35H0zM28.5 114.02H36.83V120.52H28.5zM24.67 123.52H29.840000000000003V128.69H24.67zM32.5 123.52H38.83V129.85H32.5zM41.33 123.52H48.33V129.85H41.33zM399.92 37.69s-25.76-5-42.75 4.5l3.75 18.25s25.41-10.42 39.44 2a10.94 10.94 0 0 1 3.09 4.2A19 19 0 0 1 404 77.4s-33.68-12.16-51.5 9.8A14.12 14.12 0 0 0 350 92c-1.91 6.32-5.08 22.31 7.94 32 0 0 14.25 13 66.5 2.75V67.44S426.67 44.94 399.92 37.69Zm2.25 72.75s-28.81 7.46-29.81-8.92c0 0 1.06-20.08 29.81-8.83Z"/>
        </g>
    </g>
</svg>
